<mxfile host="app.diagrams.net" modified="2024-04-23T02:57:00.015Z" agent="Mozilla/5.0 (Macintosh; Intel Mac OS X 10_15_7) AppleWebKit/537.36 (KHTML, like Gecko) Chrome/124.0.0.0 Safari/537.36" version="23.1.0" etag="L4PCg9hmLWpjTxHdUUV9" type="github">
  <diagram name="第 1 页" id="gHQ__axWDKVjUMxfi_Kf">
    <mxGraphModel>
      <root>
        <mxCell id="0" />
        <mxCell id="1" parent="0" />
      </root>
    </mxGraphModel>
  </diagram>
</mxfile>
